<?xml version="1.0" encoding="UTF-8" standalone="no"?>
<svg
   width="64"
   height="64"
   viewBox="0 0 64 64"
   fill="none"
   version="1.1"
   id="svg10"
   sodipodi:docname="gambar.svg"
   xml:space="preserve"
   inkscape:version="1.2.2 (b0a8486541, 2022-12-01)"
   xmlns:inkscape="http://www.inkscape.org/namespaces/inkscape"
   xmlns:sodipodi="http://sodipodi.sourceforge.net/DTD/sodipodi-0.dtd"
   xmlns="http://www.w3.org/2000/svg"
   xmlns:svg="http://www.w3.org/2000/svg"><defs
     id="defs14" /><sodipodi:namedview
     id="namedview12"
     pagecolor="#ffffff"
     bordercolor="#000000"
     borderopacity="0.25"
     inkscape:showpageshadow="2"
     inkscape:pageopacity="0.0"
     inkscape:pagecheckerboard="0"
     inkscape:deskcolor="#d1d1d1"
     showgrid="false"
     inkscape:zoom="6.5234375"
     inkscape:cx="30.198802"
     inkscape:cy="35.257485"
     inkscape:window-width="1920"
     inkscape:window-height="1016"
     inkscape:window-x="0"
     inkscape:window-y="33"
     inkscape:window-maximized="1"
     inkscape:current-layer="svg10" /><rect
     width="64"
     height="64"
     rx="12"
     fill="#0f766e"
     id="rect2" /><path
     style="fill:#ffffff;stroke-width:0.132335"
     d="m 26.304352,41.152506 c 1.307859,-0.12717 3.241691,-0.626444 3.685692,-0.951566 0.177834,-0.130221 0.280781,-0.550095 0.430086,-1.754181 0.280533,-2.262324 0.318787,-2.155054 -0.541805,-1.519296 -1.483007,1.095563 -3.264503,1.690917 -4.539903,1.517186 -0.4996,-0.06805 -0.78621,-0.01075 -1.57337,0.314614 -0.52937,0.218803 -1.60128,0.556625 -2.38202,0.750715 -0.78074,0.194089 -1.43375,0.364958 -1.45113,0.379707 -0.0174,0.01475 0.21492,0.165374 0.51624,0.334722 1.20403,0.510842 2.20341,0.830915 2.95606,0.979692 0.489,0.09629 1.57855,0.07691 2.90015,-0.05159 z m 12.38447,-0.336369 c 1.055266,-0.319093 1.594897,-0.625065 2.399755,-1.360661 1.613411,-1.474567 1.995601,-3.726883 0.97899,-5.769426 -0.183416,-0.368517 -0.741626,-1.114753 -1.240467,-1.658302 l -0.906985,-0.98827 -1.508905,0.703734 c -0.829893,0.387055 -1.561038,0.752903 -1.624762,0.812997 -0.06395,0.06031 0.39373,0.62462 1.021492,1.259487 1.31295,1.327811 1.807226,2.185704 1.807226,3.136742 0,1.449522 -1.080984,2.352339 -2.83266,2.365783 -1.692966,0.013 -2.898289,-0.700527 -3.613504,-2.139108 -0.233721,-0.470103 -0.448882,-0.914285 -0.478136,-0.987069 -0.116891,-0.290814 -0.200722,0.06466 -0.343292,1.455679 -0.08206,0.800623 -0.183673,1.704103 -0.225804,2.007735 -0.07177,0.517174 -0.05031,0.565658 0.339658,0.767317 0.228951,0.118395 0.934732,0.331191 1.568401,0.472882 1.371797,0.306736 3.501849,0.270382 4.658993,-0.07952 z m -25.45487,-1.364466 c 0.93301,-0.457248 1.87821,-0.760644 2.72644,-0.875142 l 0.62858,-0.08485 v -1.37202 -1.372019 l -0.76092,-0.150409 c -1.1567,-0.228639 -1.61383,-0.386514 -2.49361,-0.86118 l -0.80636,-0.435051 -1.0876,0.707478 c -1.7125205,1.113979 -4.4737803,2.082778 -5.0529103,1.772836 -0.37206,-0.199121 -0.71946,0.108306 -0.58853,0.520817 0.115,0.362332 0.72882,0.388328 0.82127,0.03479 0.0568,-0.217219 0.26544,-0.254305 1.8612198,-0.330836 0.98848,-0.04741 2.1954505,-0.08619 2.6821505,-0.08619 0.72383,0 0.92956,-0.04935 1.13024,-0.27109 0.5934,-0.655698 1.68599,0.120869 1.20432,0.855981 -0.30385,0.46374 -0.71833,0.514445 -1.0984,0.134374 -0.32073,-0.320731 -0.33497,-0.322227 -2.9960205,-0.314975 l -2.6737598,0.0073 0.9462,0.248046 c 1.3576098,0.355898 2.7727603,0.97431 3.7575203,1.642008 0.46988,0.318591 0.89288,0.586114 0.94,0.594493 0.0471,0.0084 0.43419,-0.155572 0.86017,-0.364335 z m 4.68467,-0.249019 c 0.003,-0.05459 0.0184,-1.022283 0.0331,-2.150434 l 0.0268,-2.051184 h -0.33083 -0.33084 l -0.0368,1.979203 c -0.0202,1.08856 -0.007,2.056256 0.0289,2.150434 0.0691,0.180159 0.59882,0.242698 0.60965,0.07198 z m 3.65835,-0.574409 c 3.0847,-0.784059 4.3689,-1.36122 14.597498,-6.560614 4.28789,-2.179617 6.635935,-3.051997 10.086804,-3.7476 3.636686,-0.733057 7.837085,-0.596342 10.867503,0.353716 0.570889,0.178977 1.064204,0.299191 1.096252,0.267139 0.130911,-0.130911 -2.904302,-1.024182 -4.383914,-1.290194 -1.996054,-0.358861 -5.21532,-0.480661 -7.088973,-0.268211 -4.215428,0.477982 -7.569808,1.515628 -13.092024,4.0499 -3.489827,1.60156 -6.879436,2.837056 -9.395746,3.424707 -1.69284,0.39534 -3.96393,0.739453 -4.88027,0.739453 h -0.67778 v 1.791074 1.791073 l 0.69476,-0.08699 c 0.38212,-0.04784 1.36127,-0.256397 2.17589,-0.463455 z m -0.10861,-4.029945 c 4.34182,-0.630466 7.276739,-1.83952 9.019947,-3.715798 0.769184,-0.827904 1.110178,-1.396927 1.372676,-2.29062 0.620767,-2.113468 -0.266098,-4.009021 -2.237069,-4.781421 -0.663099,-0.25986 -1.034005,-0.311072 -2.249684,-0.310618 -2.56763,9.39e-4 -4.16567,0.70118 -6.15355,2.696349 -1.32346,1.328311 -2.06801,2.436512 -2.69958,4.018119 -0.3897,0.975922 -0.74112,2.585487 -0.74112,3.394509 0,0.426759 0.0504,0.516006 0.33138,0.586519 0.18225,0.04574 0.40501,0.201076 0.495,0.345183 0.20571,0.329396 0.89555,0.343323 2.862,0.05778 z m 0.11816,-1.45905 c -0.11099,-0.110993 0.16145,-1.565003 0.5066,-2.703751 0.89895,-2.965867 2.8918,-5.028708 4.85807,-5.028708 1.488576,0 2.128809,1.136692 1.614909,2.867184 -0.413016,1.390771 -1.806659,2.666315 -4.103229,3.755501 -1.46343,0.694058 -2.78296,1.203168 -2.87635,1.109774 z m 14.804219,-3.661671 1.341112,-0.577624 -0.441486,-0.596022 c -0.242813,-0.327813 -0.5141,-0.867521 -0.602851,-1.199355 -0.147845,-0.552783 -0.13452,-0.656915 0.159047,-1.242882 0.783436,-1.563747 3.160654,-1.663469 4.629901,-0.194221 0.353158,0.353155 0.680797,0.796275 0.728092,0.984714 0.105859,0.421779 0.294357,0.44384 0.3833,0.04486 0.06507,-0.291898 0.468002,-3.036365 0.468002,-3.187693 0,-0.145749 -1.728025,-0.610339 -2.603914,-0.700076 -1.491442,-0.0773 -2.024052,-0.16772 -3.267158,0.150242 -1.61687,0.421141 -2.840775,1.370544 -3.410741,2.645767 -0.532611,1.191638 -0.357352,3.003822 0.412542,4.265726 0.223681,0.366631 0.304308,0.410539 0.562091,0.306105 0.165522,-0.06706 0.904448,-0.381852 1.642063,-0.699544 z"
     id="path864"
     sodipodi:nodetypes="ssssssssccssssscsssssssssssssscccsscsssssssssscsssssssccccssssssssssssscccssssssssssssssssssssscsssssssccssss" /></svg>
