<?xml version="1.0" encoding="UTF-8" standalone="no"?>
<svg
   width="1080"
   height="1080"
   viewBox="0 0 1080 1080"
   fill="none"
   version="1.1"
   id="svg10"
   sodipodi:docname="icon (copy).svg"
   xml:space="preserve"
   inkscape:version="1.4.2 (ebf0e940d0, 2025-05-08)"
   inkscape:export-filename="icon.png"
   inkscape:export-xdpi="96"
   inkscape:export-ydpi="96"
   xmlns:inkscape="http://www.inkscape.org/namespaces/inkscape"
   xmlns:sodipodi="http://sodipodi.sourceforge.net/DTD/sodipodi-0.dtd"
   xmlns="http://www.w3.org/2000/svg"
   xmlns:svg="http://www.w3.org/2000/svg"><defs
     id="defs14"><clipPath
       clipPathUnits="userSpaceOnUse"
       id="clipPath4"><path
         style="fill:#000000"
         d="m -934.35079,-122.85412 c -0.98353,-0.38842 -3.25575,-4.08199 -5.04937,-8.20794 -8.14934,-18.7463 -20.50854,-31.45609 -42.2923,-43.49201 l -9.86983,-5.45326 h 18.68906 18.68905 l 4.81082,4.04646 c 2.64595,2.22555 6.72332,6.15073 9.06082,8.72262 l 4.25,4.67615 v -102.33264 -102.33264 l -3.2203,-6.13997 c -4.66072,-8.88634 -21.56131,-25.57869 -34.4402,-34.01585 -13.73767,-8.99976 -29.94656,-16.62679 -47.89836,-22.53842 -14.2887,-4.70535 -38.4676,-10.28453 -50.6911,-11.69675 l -5.75,-0.66432 -0.03,57.88768 -0.029,92.07211 -9.4705,-4.77292 -9.4705,3.19833 v -97.8148 -71.29504 h 2.4617 c 5.0727,0 34.4791,4.14188 46.0863,6.49123 52.74822,10.67642 96.12187,34.04382 119.73871,64.50877 l 2.71325,3.5 2.63931,-3.5 c 1.45162,-1.925 7.05813,-7.85395 12.45891,-13.17544 24.5143,-24.15442 60.78282,-41.58816 106.46935,-51.17825 11.18152,-2.34711 41.57988,-6.64631 46.99415,-6.64631 h 2.43828 v 73 c 0,40.15 -0.20335,100.74907 -0.45188,100.74907 -0.24854,0 -7.94626,4.58064 -9.25,-0.35492 0,0 -7.93096,23.8827 -8.79812,-13.83869 l -0.25791,-79.12609 -0.25792,-59.65784 -5.74208,0.69291 c -23.62721,2.85115 -56.10755,12.12186 -76.60501,21.86502 -27.5549,13.0978 -50.95159,33.32367 -58.38595,50.47323 -1.43013,3.299 -1.62827,14.60484 -1.83926,104.94731 -0.13548,58.0125 0.14034,101.25 0.6459,101.25 0.48529,0 1.88261,-1.35291 3.10513,-3.00647 4.58418,-6.20044 28.04785,-23.99353 31.64016,-23.99353 0.59781,0 4.14918,1.51888 7.89193,3.37529 3.74276,1.85641 8.54402,3.9333 10.66947,4.61532 l 3.86447,1.24004 -8.97458,4.74039 c -24.17001,12.76664 -37.55185,26.44608 -45.85174,46.87145 -1.61493,3.9742 -2.98382,5.851 -4.60078,6.30783 -3.10732,0.87789 -13.86955,0.87982 -16.09008,0.003 z"
         id="path5"
         sodipodi:nodetypes="ssscccsscccsssscccccccssscsssscssscccssssssssscsssss" /></clipPath><inkscape:path-effect
       effect="fill_between_many"
       method="originald"
       linkedpaths="#path26,0,1"
       id="path-effect53"
       is_visible="true"
       lpeversion="0"
       join="true"
       close="true"
       autoreverse="true" /><filter
       id="mask-powermask-path-effect56_inverse"
       inkscape:label="filtermask-powermask-path-effect56"
       style="color-interpolation-filters:sRGB"
       height="100"
       width="100"
       x="-50"
       y="-50"><feColorMatrix
         id="mask-powermask-path-effect56_primitive1"
         values="1"
         type="saturate"
         result="fbSourceGraphic" /><feColorMatrix
         id="mask-powermask-path-effect56_primitive2"
         values="-1 0 0 0 1 0 -1 0 0 1 0 0 -1 0 1 0 0 0 1 0 "
         in="fbSourceGraphic" /></filter></defs><sodipodi:namedview
     id="namedview12"
     pagecolor="#ffffff"
     bordercolor="#000000"
     borderopacity="0.25"
     inkscape:showpageshadow="2"
     inkscape:pageopacity="0.0"
     inkscape:pagecheckerboard="0"
     inkscape:deskcolor="#d1d1d1"
     showgrid="false"
     inkscape:zoom="0.20385742"
     inkscape:cx="250.17485"
     inkscape:cy="613.17365"
     inkscape:window-width="1366"
     inkscape:window-height="714"
     inkscape:window-x="0"
     inkscape:window-y="26"
     inkscape:window-maximized="1"
     inkscape:current-layer="svg10" /><rect
     width="1080"
     height="1080"
     rx="202.5"
     fill="#0f766e"
     id="rect2"
     x="0"
     y="0"
     style="stroke-width:16.875" /><path
     d="M 0,0"
     id="path53"
     inkscape:original-d="M 0,0"
     inkscape:path-effect="#path-effect53"
     transform="matrix(2.2825764,0,0,2.2825764,264.58868,759.16774)"
     style="fill:#ffffff" /><path
     style="fill:#ffffff;stroke-width:2.28258"
     d="M 342.37484,911.45805 C 260.50065,895.17507 201.01442,800.77068 212.6227,705.54184 235.83239,515.13844 441.687,470.09842 525.19209,637.15288 l 10.37385,20.75341 -11.24146,10.00683 c -52.83297,47.03066 -141.97511,93.8972 -218.38527,114.81607 -22.66872,6.20587 -22.4238,5.77127 -12.75161,22.63997 26.38224,46.01035 79.21612,63.35244 124.73595,40.94303 30.31056,-14.92166 53.08976,-43.37307 103.11151,-128.78683 11.76372,-20.08666 26.74198,-45.47416 33.28521,-56.41639 l 11.89656,-19.89539 1.6252,13.00749 c 2.07668,16.62082 8.60668,34.03984 17.21632,45.92522 8.44417,11.65666 9.36017,7.4711 -8.46059,38.6552 -84.73563,148.27637 -142.5437,190.88956 -234.22292,172.65656 z m -28.36672,-190.604 c 54.52093,-18.06637 145.43436,-65.6501 145.43436,-76.11982 0,-5.81304 -19.9705,-27.95951 -33.02797,-36.62645 -67.94637,-45.10029 -154.1433,17.29553 -154.1433,111.5801 0,15.73174 -2.04724,15.67468 41.73691,1.16617 z m 386.24616,191.73662 c -35.41395,-5.39852 -69.6713,-23.40394 -96.18594,-50.55427 -15.73608,-16.11339 -44.97132,-55.74006 -43.26167,-58.63848 0.45971,-0.7795 6.35514,-10.66169 13.10062,-21.96044 6.74547,-11.29873 13.71144,-23.36739 15.47975,-26.8191 l 3.21523,-6.27618 18.30353,27.96063 c 53.23812,81.32546 139.82926,109.56663 178.04232,58.06714 31.50024,-42.45226 9.13122,-66.25883 -86.41126,-91.96498 -85.48774,-23.00106 -115.77935,-49.84918 -115.63167,-102.48723 0.18261,-65.19358 56.85441,-108.38973 138.79023,-105.78874 29.12864,0.92468 28.40804,1.538 18.98008,-16.1506 -15.55097,-29.17634 -35.22928,-46.04298 -93.24667,-79.92252 -50.97084,-29.76497 -61.99363,-37.40154 -84.37019,-58.45191 l -18.63746,-17.53275 -15.77876,14.88496 c -23.19532,21.88111 -35.53607,30.57271 -82.98558,58.44598 -57.08952,33.536 -82.67103,54.39784 -95.03598,77.50208 -1.36453,2.54963 -7.23485,5.22801 -15.45464,7.05156 -7.28986,1.6172 -19.67421,5.83791 -27.52056,9.37956 -16.05382,7.24581 -16.08966,7.20541 -9.42454,-10.60896 15.87555,-42.43149 56.5102,-83.06744 114.99369,-114.99773 58.77726,-32.09074 92.10104,-58.33986 111.86587,-88.11697 11.59481,-17.46824 11.70506,-18.31793 2.91691,-22.48819 -60.6371,-28.77414 -45.85331,-122.10711 20.26334,-127.92679 11.59229,-1.02036 12.33641,-0.86366 5.73384,1.20734 -12.32478,3.8658 -26.97549,20.33353 -31.28819,35.16861 -15.41926,53.04024 47.80285,94.16382 89.0061,57.89518 12.06798,-10.6226 12.74385,-9.51626 3.73178,6.10743 -10.7854,18.6977 -24.75591,28.47648 -47.39793,33.17695 -14.68678,3.04897 -14.67263,2.92074 -2.16662,19.64185 22.93122,30.65979 51.71633,53.29286 104.12474,81.87101 77.96071,42.51185 117.62527,88.50204 131.0281,151.92548 0.68112,3.22209 3.98447,7.32821 7.34099,9.12437 20.15676,10.78769 40.65909,51.44425 42.5155,84.30924 l 0.58024,10.27159 h -31.94649 -31.94648 l -1.62793,-13.03213 c -8.58797,-68.7528 -135.07306,-77.97578 -140.50696,-10.24558 -2.14585,26.74564 15.54982,38.09872 89.61646,57.49606 92.81641,24.30784 123.05757,51.24954 123.19841,109.75606 0.17575,73.3095 -75.43185,125.91741 -162.00221,112.72047 z"
     id="path15"
     sodipodi:nodetypes="ssscsssssscsssssssssssssscsssssssscsssssssssssssssssscscccsssss" /></svg>
