<?xml version="1.0" encoding="UTF-8" standalone="no"?>
<svg
   width="64"
   height="64"
   viewBox="0 0 64 64"
   fill="none"
   version="1.1"
   id="svg992"
   sodipodi:docname="logo.svg"
   inkscape:version="1.4.2 (ebf0e940d0, 2025-05-08)"
   xml:space="preserve"
   xmlns:inkscape="http://www.inkscape.org/namespaces/inkscape"
   xmlns:sodipodi="http://sodipodi.sourceforge.net/DTD/sodipodi-0.dtd"
   xmlns="http://www.w3.org/2000/svg"
   xmlns:svg="http://www.w3.org/2000/svg"><defs
     id="defs996"><clipPath
       clipPathUnits="userSpaceOnUse"
       id="clipPath4"><path
         style="fill:#000000"
         d="m -934.35079,-122.85412 c -0.98353,-0.38842 -3.25575,-4.08199 -5.04937,-8.20794 -8.14934,-18.7463 -20.50854,-31.45609 -42.2923,-43.49201 l -9.86983,-5.45326 h 18.68906 18.68905 l 4.81082,4.04646 c 2.64595,2.22555 6.72332,6.15073 9.06082,8.72262 l 4.25,4.67615 v -102.33264 -102.33264 l -3.2203,-6.13997 c -4.66072,-8.88634 -21.56131,-25.57869 -34.4402,-34.01585 -13.73767,-8.99976 -29.94656,-16.62679 -47.89836,-22.53842 -14.2887,-4.70535 -38.4676,-10.28453 -50.6911,-11.69675 l -5.75,-0.66432 -0.03,57.88768 -0.029,92.07211 -9.4705,-4.77292 -9.4705,3.19833 v -97.8148 -71.29504 h 2.4617 c 5.0727,0 34.4791,4.14188 46.0863,6.49123 52.74822,10.67642 96.12187,34.04382 119.73871,64.50877 l 2.71325,3.5 2.63931,-3.5 c 1.45162,-1.925 7.05813,-7.85395 12.45891,-13.17544 24.5143,-24.15442 60.78282,-41.58816 106.46935,-51.17825 11.18152,-2.34711 41.57988,-6.64631 46.99415,-6.64631 h 2.43828 v 73 c 0,40.15 -0.20335,100.74907 -0.45188,100.74907 -0.24854,0 -7.94626,4.58064 -9.25,-0.35492 0,0 -7.93096,23.8827 -8.79812,-13.83869 l -0.25791,-79.12609 -0.25792,-59.65784 -5.74208,0.69291 c -23.62721,2.85115 -56.10755,12.12186 -76.60501,21.86502 -27.5549,13.0978 -50.95159,33.32367 -58.38595,50.47323 -1.43013,3.299 -1.62827,14.60484 -1.83926,104.94731 -0.13548,58.0125 0.14034,101.25 0.6459,101.25 0.48529,0 1.88261,-1.35291 3.10513,-3.00647 4.58418,-6.20044 28.04785,-23.99353 31.64016,-23.99353 0.59781,0 4.14918,1.51888 7.89193,3.37529 3.74276,1.85641 8.54402,3.9333 10.66947,4.61532 l 3.86447,1.24004 -8.97458,4.74039 c -24.17001,12.76664 -37.55185,26.44608 -45.85174,46.87145 -1.61493,3.9742 -2.98382,5.851 -4.60078,6.30783 -3.10732,0.87789 -13.86955,0.87982 -16.09008,0.003 z"
         id="path5"
         sodipodi:nodetypes="ssscccsscccsssscccccccssscsssscssscccssssssssscsssss" /></clipPath><inkscape:path-effect
       effect="fill_between_many"
       method="originald"
       linkedpaths="#path26,0,1"
       id="path-effect53"
       is_visible="true"
       lpeversion="0"
       join="true"
       close="true"
       autoreverse="true" /><filter
       id="mask-powermask-path-effect56_inverse"
       inkscape:label="filtermask-powermask-path-effect56"
       style="color-interpolation-filters:sRGB"
       height="100"
       width="100"
       x="-50"
       y="-50"><feColorMatrix
         id="mask-powermask-path-effect56_primitive1"
         values="1"
         type="saturate"
         result="fbSourceGraphic" /><feColorMatrix
         id="mask-powermask-path-effect56_primitive2"
         values="-1 0 0 0 1 0 -1 0 0 1 0 0 -1 0 1 0 0 0 1 0 "
         in="fbSourceGraphic" /></filter></defs><sodipodi:namedview
     id="namedview994"
     pagecolor="#ffffff"
     bordercolor="#000000"
     borderopacity="0.25"
     inkscape:showpageshadow="2"
     inkscape:pageopacity="0.0"
     inkscape:pagecheckerboard="0"
     inkscape:deskcolor="#d1d1d1"
     showgrid="false"
     inkscape:zoom="3.2617188"
     inkscape:cx="42.922156"
     inkscape:cy="60.091018"
     inkscape:window-width="1366"
     inkscape:window-height="714"
     inkscape:window-x="0"
     inkscape:window-y="26"
     inkscape:window-maximized="1"
     inkscape:current-layer="svg992" /><path
     d="M 0,0"
     id="path53"
     inkscape:original-d="M 0,0"
     inkscape:path-effect="#path-effect53"
     transform="matrix(2.2825764,0,0,2.2825764,-1204.0052,272.41867)"
     style="fill:#ffffff" /><path
     style="fill:#ffffff;stroke-width:0.139094"
     d="M 20.157438,54.635503 C 15.168252,53.643233 11.543332,47.890518 12.25071,42.087548 13.665036,30.484904 26.209238,27.740288 31.297798,37.920114 l 0.632157,1.264662 -0.684995,0.609829 c -3.219489,2.86591 -8.651564,5.721829 -13.307781,6.996566 -1.381366,0.378141 -1.366437,0.351723 -0.777041,1.379615 1.607651,2.803742 4.827205,3.860516 7.601059,2.49495 1.847035,-0.909238 3.235142,-2.643031 6.283319,-7.847906 0.716864,-1.224028 1.629584,-2.771065 2.028304,-3.437849 l 0.724938,-1.212373 0.09855,0.792663 c 0.126537,1.012817 0.524492,2.074286 1.049121,2.798553 0.514533,0.710366 0.570408,0.455301 -0.515581,2.35554 -5.163549,9.035534 -8.686213,11.632268 -14.272878,10.5212 z M 18.428846,43.020634 c 3.322355,-1.10092 8.862357,-4.000535 8.862357,-4.638533 0,-0.354238 -1.21694,-1.703776 -2.012623,-2.231904 -4.140468,-2.748285 -9.393065,1.053932 -9.393065,6.79937 0,0.958617 -0.124751,0.955155 2.543331,0.07129 z m 23.536755,11.683881 c -2.15803,-0.328973 -4.245579,-1.426162 -5.861303,-3.080635 -0.958931,-0.981889 -2.740423,-3.39664 -2.636248,-3.573257 0.0283,-0.04717 0.387264,-0.649665 0.798323,-1.338215 0.41106,-0.688455 0.835539,-1.423939 0.943311,-1.634271 l 0.195938,-0.382439 1.115365,1.703851 c 3.244178,4.955742 8.520804,6.67667 10.849399,3.538439 1.919528,-2.586921 0.556468,-4.037626 -5.265668,-5.60409 -5.209374,-1.401618 -7.055254,-3.037661 -7.04626,-6.245272 0.01146,-3.972723 3.464552,-6.604964 8.457482,-6.446475 1.775013,0.05661 1.731108,0.09331 1.1566,-0.984195 -0.94761,-1.777927 -2.146783,-2.805734 -5.682193,-4.870261 -3.106025,-1.813792 -3.777717,-2.279136 -5.141282,-3.561894 l -1.135716,-1.068389 -0.961552,0.907038 c -1.413455,1.333371 -2.16547,1.863012 -5.05691,3.561525 -3.478871,2.04359 -5.037735,3.314858 -5.791229,4.722758 -0.08281,0.155374 -0.440833,0.318595 -0.941738,0.429721 -0.444189,0.09855 -1.198889,0.355706 -1.677023,0.571564 -0.978221,0.441568 -0.980421,0.43905 -0.57429,-0.646521 0.967424,-2.585654 3.443576,-5.061891 7.007397,-7.007629 3.581717,-1.955529 5.612382,-3.555068 6.816786,-5.369601 0.706589,-1.06447 0.713301,-1.116248 0.177807,-1.37037 -3.695054,-1.753416 -2.794171,-7.4408588 1.234795,-7.7954985 0.706383,-0.061847 0.751775,-0.052422 0.349418,0.073385 -0.751042,0.2355659 -1.643811,1.2390625 -1.906623,2.1430815 -0.939642,3.23212 2.912982,5.738068 5.423782,3.527968 0.735422,-0.64736 0.776622,-0.579952 0.227389,0.372167 -0.657214,1.139383 -1.508552,1.735279 -2.888292,2.02171 -0.894984,0.185762 -0.894144,0.178007 -0.131987,1.196918 1.397362,1.868316 3.15145,3.247512 6.345067,4.988987 4.750705,2.590549 7.167753,5.393066 7.984484,9.257911 0.04194,0.196356 0.242799,0.4466 0.447333,0.556049 1.228304,0.65732 2.477652,3.134865 2.590779,5.13756 l 0.03564,0.625973 H 49.47766 47.530936 l -0.09959,-0.794129 c -0.523339,-4.189595 -8.230973,-4.751618 -8.562096,-0.624296 -0.130736,1.629805 0.947609,2.321635 5.460966,3.503647 5.655972,1.481251 7.498783,3.123008 7.507369,6.688224 0.01057,4.467273 -4.596599,7.673051 -9.871955,6.868866 z"
     id="path15"
     sodipodi:nodetypes="ssscsssssscsssssssssssssscsssssssscsssssssssssssssssscscccsssss" /></svg>
